<svg width="275" height="298" viewBox="0 0 275 298" fill="none" xmlns="http://www.w3.org/2000/svg">
<path fill-rule="evenodd" clip-rule="evenodd" d="M14 0.5H6.5V8V216.5H0.5V231.5H8H14H67.5H106.298C102.563 226.913 99.4176 221.88 96.969 216.5H67.5H21.5V15.5H113.5V138.872C117.988 134.761 123.026 131.178 128.5 128.229V8V0.5H121H14ZM221.5 142.831C228.19 149.989 233.35 158.441 236.5 167.735V63.5V56H229H155.5H148V71H155.5H221.5V142.831ZM236.5 210.266C233.873 218.017 229.847 225.182 224.702 231.5H229H235.5H243V216.5H236.5V210.266Z" fill="url(#paint0_linear_59_974)"/>
<path fill-rule="evenodd" clip-rule="evenodd" d="M161.5 103H188.5V122.4C181.256 120.193 173.526 119 165.5 119C164.158 119 162.824 119.033 161.5 119.099V103Z" fill="#0E4550"/>
<path fill-rule="evenodd" clip-rule="evenodd" d="M117.099 222.361C108.887 212.589 103.94 199.98 103.94 186.217C103.94 155.169 129.109 130 160.157 130C186.255 130 208.2 147.784 214.533 171.894C213.244 171.806 211.942 171.761 210.63 171.761C210.531 171.761 210.431 171.761 210.331 171.762C204.062 149.963 183.972 134.015 160.157 134.015C131.327 134.015 107.956 157.387 107.956 186.217C107.956 199.34 112.798 211.332 120.794 220.504C120.604 221.44 120.388 222.34 120.143 223.171C119.131 226.593 117.048 230.755 115.249 234.012C113.973 235.992 112.563 237.931 111.298 239.585C110.169 241.062 109.136 242.336 108.386 243.242C108.011 243.694 107.706 244.056 107.494 244.305C107.387 244.429 107.304 244.525 107.248 244.591L107.182 244.667L107.165 244.687L107.16 244.692L107.159 244.694L107.158 244.694C107.158 244.694 107.158 244.695 105.948 243.638L107.158 244.695L107.045 244.824L106.907 244.927C105.084 246.285 103.853 247.401 103.093 248.28C102.714 248.719 102.481 249.067 102.347 249.326C102.318 249.383 102.295 249.432 102.277 249.474C102.681 249.605 103.436 249.685 104.602 249.586C109.392 249.178 118.294 246.03 126.729 240.302C128.577 239.047 130.48 237.047 132.163 234.979L132.147 234.97C132.85 234.364 133.548 233.741 134.237 233.099C134.573 232.786 134.905 232.449 135.23 232.093C141.305 235.401 148.11 237.537 155.341 238.199C155.595 239.584 155.9 240.952 156.255 242.3C148.672 241.78 141.503 239.757 135.042 236.525C133.175 238.874 130.889 241.36 128.534 242.959C119.802 248.889 110.377 252.318 104.874 252.787C103.506 252.903 102.201 252.855 101.169 252.49C100.638 252.303 100.088 252 99.6637 251.502C99.2156 250.977 98.9946 250.333 99.0001 249.654C99.01 248.429 99.7446 247.243 100.662 246.181C101.611 245.082 102.999 243.842 104.847 242.456C104.898 242.397 104.966 242.318 105.049 242.22C105.253 241.982 105.548 241.632 105.913 241.192C106.643 240.311 107.648 239.071 108.746 237.634C110.962 234.735 113.487 231.13 114.939 228.089C115.728 226.438 116.458 224.412 117.099 222.361ZM270.06 231.19C270.06 244.954 265.113 257.562 256.901 267.335C257.542 269.386 258.272 271.411 259.061 273.062C260.513 276.103 263.038 279.708 265.254 282.607C266.352 284.044 267.357 285.284 268.087 286.165C268.452 286.605 268.747 286.955 268.951 287.193C269.034 287.291 269.102 287.37 269.153 287.429C271.001 288.815 272.389 290.055 273.338 291.154C274.255 292.216 274.99 293.402 275 294.627C275.005 295.307 274.784 295.95 274.336 296.476C273.912 296.973 273.362 297.276 272.831 297.463C271.799 297.828 270.494 297.876 269.125 297.76C263.623 297.292 254.198 293.862 245.466 287.933C243.111 286.333 240.825 283.847 238.958 281.499C231.399 285.28 222.869 287.407 213.843 287.407C182.795 287.407 157.626 262.238 157.626 231.19C157.626 200.143 182.795 174.973 213.843 174.973C244.891 174.973 270.06 200.143 270.06 231.19ZM241.837 279.952L241.853 279.943C241.15 279.338 240.452 278.714 239.763 278.072C239.427 277.76 239.096 277.423 238.77 277.067C231.363 281.1 222.87 283.391 213.843 283.391C185.013 283.391 161.642 260.02 161.642 231.19C161.642 202.36 185.013 178.989 213.843 178.989C242.673 178.989 266.044 202.36 266.044 231.19C266.044 244.313 261.202 256.306 253.206 265.477C253.396 266.413 253.612 267.313 253.857 268.144C254.869 271.567 256.952 275.729 258.751 278.986C260.027 280.965 261.437 282.904 262.702 284.558C263.831 286.036 264.864 287.31 265.614 288.215C265.989 288.668 266.294 289.029 266.506 289.278C266.566 289.348 266.618 289.409 266.663 289.46C266.698 289.501 266.727 289.536 266.752 289.565L266.818 289.64L266.835 289.66L266.84 289.665L266.841 289.667L266.842 289.668C266.842 289.668 266.842 289.668 268.052 288.612L266.842 289.668L266.955 289.797L267.093 289.9C268.916 291.258 270.147 292.374 270.907 293.254C271.286 293.692 271.519 294.04 271.653 294.3C271.682 294.356 271.705 294.405 271.723 294.447C271.319 294.578 270.564 294.658 269.398 294.559C264.608 294.151 255.706 291.003 247.271 285.275C245.423 284.02 243.52 282.02 241.837 279.952Z" fill="url(#paint1_linear_59_974)"/>
<path d="M129.116 173.769H183.727" stroke="#0E4550" stroke-width="3.21239" stroke-linecap="round"/>
<path d="M129.116 181.8H177.302" stroke="#0E4550" stroke-width="3.21239" stroke-linecap="round"/>
<path d="M129.115 190.032H156.021" stroke="#0E4550" stroke-width="3.21239" stroke-linecap="round"/>
<path d="M196.978 223.159L213.932 240.827L229.102 223.159" stroke="url(#paint2_linear_59_974)" stroke-width="32.1239" stroke-linecap="round"/>
<path d="M54.5 203.5V216.5H80.5V203.5H54.5ZM80.5 172C80.5 164.82 74.6797 159 67.5 159C60.3203 159 54.5 164.82 54.5 172H80.5ZM80.5 203.5V172H54.5V203.5H80.5Z" fill="#EF9045"/>
<rect x="53.5" y="49" width="27" height="27" fill="#0E4550"/>
<rect x="53.5" y="103" width="27" height="27" fill="#0E4550"/>
<defs>
<linearGradient id="paint0_linear_59_974" x1="213.294" y1="32.0001" x2="-2.04213" y2="40.7934" gradientUnits="userSpaceOnUse">
<stop stop-color="#EF9045"/>
<stop offset="1" stop-color="#F64C18"/>
</linearGradient>
<linearGradient id="paint1_linear_59_974" x1="253.44" y1="152.884" x2="97.1545" y2="159.26" gradientUnits="userSpaceOnUse">
<stop stop-color="#EF9045"/>
<stop offset="1" stop-color="#F64C18"/>
</linearGradient>
<linearGradient id="paint2_linear_59_974" x1="225.166" y1="225.568" x2="196.736" y2="227.579" gradientUnits="userSpaceOnUse">
<stop stop-color="#EF9045"/>
<stop offset="1" stop-color="#F64C18"/>
</linearGradient>
</defs>
</svg>
